<svg width="120" height="80" viewBox="0 0 120 80" xmlns="http://www.w3.org/2000/svg">
  <!-- V7 Logo with 3D isometric blocky style -->
  
  <!-- Letter V - Left arm -->
  <rect x="8" y="8" width="10" height="8" fill="#4FC3F7" stroke="#000" stroke-width="0.5"/>
  <rect x="6" y="16" width="10" height="8" fill="#4FC3F7" stroke="#000" stroke-width="0.5"/>
  <rect x="4" y="24" width="10" height="8" fill="#4FC3F7" stroke="#000" stroke-width="0.5"/>
  <rect x="2" y="32" width="10" height="8" fill="#4FC3F7" stroke="#000" stroke-width="0.5"/>
  <rect x="0" y="40" width="10" height="8" fill="#4FC3F7" stroke="#000" stroke-width="0.5"/>
  
  <!-- Letter V - Right arm -->
  <rect x="22" y="8" width="10" height="8" fill="#4FC3F7" stroke="#000" stroke-width="0.5"/>
  <rect x="24" y="16" width="10" height="8" fill="#4FC3F7" stroke="#000" stroke-width="0.5"/>
  <rect x="26" y="24" width="10" height="8" fill="#4FC3F7" stroke="#000" stroke-width="0.5"/>
  <rect x="28" y="32" width="10" height="8" fill="#4FC3F7" stroke="#000" stroke-width="0.5"/>
  <rect x="30" y="40" width="10" height="8" fill="#4FC3F7" stroke="#000" stroke-width="0.5"/>
  
  <!-- Letter V - Bottom point -->
  <rect x="14" y="48" width="8" height="8" fill="#4FC3F7" stroke="#000" stroke-width="0.5"/>
  
  <!-- Number 7 - Top horizontal bar -->
  <rect x="45" y="8" width="10" height="8" fill="#4FC3F7" stroke="#000" stroke-width="0.5"/>
  <rect x="55" y="8" width="10" height="8" fill="#4FC3F7" stroke="#000" stroke-width="0.5"/>
  <rect x="65" y="8" width="10" height="8" fill="#4FC3F7" stroke="#000" stroke-width="0.5"/>
  
  <!-- Number 7 - Diagonal arm -->
  <rect x="70" y="16" width="8" height="8" fill="#4FC3F7" stroke="#000" stroke-width="0.5"/>
  <rect x="68" y="24" width="8" height="8" fill="#4FC3F7" stroke="#000" stroke-width="0.5"/>
  <rect x="66" y="32" width="8" height="8" fill="#4FC3F7" stroke="#000" stroke-width="0.5"/>
  <rect x="64" y="40" width="8" height="8" fill="#4FC3F7" stroke="#000" stroke-width="0.5"/>
  <rect x="62" y="48" width="8" height="8" fill="#4FC3F7" stroke="#000" stroke-width="0.5"/>
  <rect x="60" y="56" width="8" height="8" fill="#4FC3F7" stroke="#000" stroke-width="0.5"/>
  
  <!-- Add 3D shadow effects for depth -->
  <defs>
    <linearGradient id="blockGradient" x1="0%" y1="0%" x2="100%" y2="100%">
      <stop offset="0%" style="stop-color:#4FC3F7;stop-opacity:1" />
      <stop offset="50%" style="stop-color:#29B6F6;stop-opacity:1" />
      <stop offset="100%" style="stop-color:#0277BD;stop-opacity:1" />
    </linearGradient>
  </defs>
</svg>