<svg width="120" height="80" viewBox="0 0 120 80" xmlns="http://www.w3.org/2000/svg">
  <!-- V7 Logo - exact flat pixel-art style -->
  
  <!-- Letter V - Left arm (5 flat blocks) -->
  <rect x="8" y="8" width="12" height="8" fill="#4FC3F7"/>
  <rect x="12" y="16" width="12" height="8" fill="#4FC3F7"/>
  <rect x="16" y="24" width="12" height="8" fill="#4FC3F7"/>
  <rect x="20" y="32" width="12" height="8" fill="#4FC3F7"/>
  <rect x="24" y="40" width="12" height="8" fill="#4FC3F7"/>
  
  <!-- Letter V - Right arm (5 flat blocks) -->
  <rect x="40" y="8" width="12" height="8" fill="#4FC3F7"/>
  <rect x="36" y="16" width="12" height="8" fill="#4FC3F7"/>
  <rect x="32" y="24" width="12" height="8" fill="#4FC3F7"/>
  <rect x="28" y="32" width="12" height="8" fill="#4FC3F7"/>
  <rect x="24" y="40" width="12" height="8" fill="#4FC3F7"/>
  
  <!-- Letter V - Bottom point (2 flat blocks) -->
  <rect x="24" y="48" width="12" height="8" fill="#4FC3F7"/>
  <rect x="36" y="48" width="12" height="8" fill="#4FC3F7"/>
  
  <!-- Number 7 - Top horizontal bar (2 flat blocks) -->
  <rect x="60" y="8" width="12" height="8" fill="#4FC3F7"/>
  <rect x="72" y="8" width="12" height="8" fill="#4FC3F7"/>
  
  <!-- Number 7 - Diagonal arm (5 flat blocks) -->
  <rect x="84" y="16" width="12" height="8" fill="#4FC3F7"/>
  <rect x="80" y="24" width="12" height="8" fill="#4FC3F7"/>
  <rect x="76" y="32" width="12" height="8" fill="#4FC3F7"/>
  <rect x="72" y="40" width="12" height="8" fill="#4FC3F7"/>
  <rect x="68" y="48" width="12" height="8" fill="#4FC3F7"/>
</svg>
