<svg width="80" height="60" viewBox="0 0 80 60" xmlns="http://www.w3.org/2000/svg">
  <!-- V7 Logo with 3D blocky style -->
  
  <!-- Letter V -->
  <!-- Left arm of V -->
  <rect x="5" y="5" width="8" height="6" fill="#4FC3F7" stroke="#000" stroke-width="0.5"/>
  <rect x="6" y="11" width="6" height="6" fill="#4FC3F7" stroke="#000" stroke-width="0.5"/>
  <rect x="7" y="17" width="4" height="6" fill="#4FC3F7" stroke="#000" stroke-width="0.5"/>
  <rect x="8" y="23" width="2" height="6" fill="#4FC3F7" stroke="#000" stroke-width="0.5"/>
  <rect x="9" y="29" width="2" height="6" fill="#4FC3F7" stroke="#000" stroke-width="0.5"/>
  
  <!-- Right arm of V -->
  <rect x="17" y="5" width="8" height="6" fill="#4FC3F7" stroke="#000" stroke-width="0.5"/>
  <rect x="18" y="11" width="6" height="6" fill="#4FC3F7" stroke="#000" stroke-width="0.5"/>
  <rect x="19" y="17" width="4" height="6" fill="#4FC3F7" stroke="#000" stroke-width="0.5"/>
  <rect x="20" y="23" width="2" height="6" fill="#4FC3F7" stroke="#000" stroke-width="0.5"/>
  <rect x="21" y="29" width="2" height="6" fill="#4FC3F7" stroke="#000" stroke-width="0.5"/>
  
  <!-- Bottom point of V -->
  <rect x="12" y="35" width="6" height="6" fill="#4FC3F7" stroke="#000" stroke-width="0.5"/>
  
  <!-- Number 7 -->
  <!-- Top bar of 7 -->
  <rect x="30" y="5" width="8" height="6" fill="#4FC3F7" stroke="#000" stroke-width="0.5"/>
  <rect x="38" y="5" width="8" height="6" fill="#4FC3F7" stroke="#000" stroke-width="0.5"/>
  
  <!-- Diagonal arm of 7 -->
  <rect x="44" y="11" width="6" height="6" fill="#4FC3F7" stroke="#000" stroke-width="0.5"/>
  <rect x="42" y="17" width="6" height="6" fill="#4FC3F7" stroke="#000" stroke-width="0.5"/>
  <rect x="40" y="23" width="6" height="6" fill="#4FC3F7" stroke="#000" stroke-width="0.5"/>
  <rect x="38" y="29" width="6" height="6" fill="#4FC3F7" stroke="#000" stroke-width="0.5"/>
  <rect x="36" y="35" width="6" height="6" fill="#4FC3F7" stroke="#000" stroke-width="0.5"/>
  <rect x="34" y="41" width="6" height="6" fill="#4FC3F7" stroke="#000" stroke-width="0.5"/>
  
  <!-- Add 3D shadow effects -->
  <defs>
    <linearGradient id="blockGradient" x1="0%" y1="0%" x2="100%" y2="100%">
      <stop offset="0%" style="stop-color:#4FC3F7;stop-opacity:1" />
      <stop offset="100%" style="stop-color:#29B6F6;stop-opacity:1" />
    </linearGradient>
  </defs>
</svg>
