<svg width="80" height="60" viewBox="0 0 80 60" xmlns="http://www.w3.org/2000/svg">
  <!-- V7 Logo - clean flat pixel-art style -->
  
  <!-- Letter V - Left arm -->
  <rect x="5" y="5" width="8" height="6" fill="#4FC3F7"/>
  <rect x="6" y="11" width="8" height="6" fill="#4FC3F7"/>
  <rect x="7" y="17" width="8" height="6" fill="#4FC3F7"/>
  <rect x="8" y="23" width="8" height="6" fill="#4FC3F7"/>
  <rect x="9" y="29" width="8" height="6" fill="#4FC3F7"/>
  
  <!-- Letter V - Right arm -->
  <rect x="17" y="5" width="8" height="6" fill="#4FC3F7"/>
  <rect x="18" y="11" width="8" height="6" fill="#4FC3F7"/>
  <rect x="19" y="17" width="8" height="6" fill="#4FC3F7"/>
  <rect x="20" y="23" width="8" height="6" fill="#4FC3F7"/>
  <rect x="21" y="29" width="8" height="6" fill="#4FC3F7"/>
  
  <!-- Letter V - Bottom point -->
  <rect x="12" y="35" width="8" height="6" fill="#4FC3F7"/>
  
  <!-- Number 7 - Top horizontal bar -->
  <rect x="30" y="5" width="8" height="6" fill="#4FC3F7"/>
  <rect x="38" y="5" width="8" height="6" fill="#4FC3F7"/>
  
  <!-- Number 7 - Diagonal arm -->
  <rect x="44" y="11" width="8" height="6" fill="#4FC3F7"/>
  <rect x="42" y="17" width="8" height="6" fill="#4FC3F7"/>
  <rect x="40" y="23" width="8" height="6" fill="#4FC3F7"/>
  <rect x="38" y="29" width="8" height="6" fill="#4FC3F7"/>
  <rect x="36" y="35" width="8" height="6" fill="#4FC3F7"/>
</svg>