<svg width="120" height="80" viewBox="0 0 120 80" xmlns="http://www.w3.org/2000/svg">
  <!-- V7 Logo - exact replica of the provided image -->
  
  <!-- Letter V - Left arm (5 blocks stacked diagonally) -->
  <rect x="8" y="8" width="12" height="8" fill="#4FC3F7" stroke="#000" stroke-width="0.5"/>
  <rect x="12" y="16" width="12" height="8" fill="#4FC3F7" stroke="#000" stroke-width="0.5"/>
  <rect x="16" y="24" width="12" height="8" fill="#4FC3F7" stroke="#000" stroke-width="0.5"/>
  <rect x="20" y="32" width="12" height="8" fill="#4FC3F7" stroke="#000" stroke-width="0.5"/>
  <rect x="24" y="40" width="12" height="8" fill="#4FC3F7" stroke="#000" stroke-width="0.5"/>
  
  <!-- Letter V - Right arm (5 blocks stacked diagonally) -->
  <rect x="40" y="8" width="12" height="8" fill="#4FC3F7" stroke="#000" stroke-width="0.5"/>
  <rect x="36" y="16" width="12" height="8" fill="#4FC3F7" stroke="#000" stroke-width="0.5"/>
  <rect x="32" y="24" width="12" height="8" fill="#4FC3F7" stroke="#000" stroke-width="0.5"/>
  <rect x="28" y="32" width="12" height="8" fill="#4FC3F7" stroke="#000" stroke-width="0.5"/>
  <rect x="24" y="40" width="12" height="8" fill="#4FC3F7" stroke="#000" stroke-width="0.5"/>
  
  <!-- Letter V - Bottom point (2 blocks side by side) -->
  <rect x="24" y="48" width="12" height="8" fill="#4FC3F7" stroke="#000" stroke-width="0.5"/>
  <rect x="36" y="48" width="12" height="8" fill="#4FC3F7" stroke="#000" stroke-width="0.5"/>
  
  <!-- Number 7 - Top horizontal bar (2 blocks) -->
  <rect x="60" y="8" width="12" height="8" fill="#4FC3F7" stroke="#000" stroke-width="0.5"/>
  <rect x="72" y="8" width="12" height="8" fill="#4FC3F7" stroke="#000" stroke-width="0.5"/>
  
  <!-- Number 7 - Diagonal arm (6 blocks stepping down and left) -->
  <rect x="84" y="16" width="12" height="8" fill="#4FC3F7" stroke="#000" stroke-width="0.5"/>
  <rect x="80" y="24" width="12" height="8" fill="#4FC3F7" stroke="#000" stroke-width="0.5"/>
  <rect x="76" y="32" width="12" height="8" fill="#4FC3F7" stroke="#000" stroke-width="0.5"/>
  <rect x="72" y="40" width="12" height="8" fill="#4FC3F7" stroke="#000" stroke-width="0.5"/>
  <rect x="68" y="48" width="12" height="8" fill="#4FC3F7" stroke="#000" stroke-width="0.5"/>
  <rect x="64" y="56" width="12" height="8" fill="#4FC3F7" stroke="#000" stroke-width="0.5"/>
  
  <!-- Add 3D shadow effects for each block -->
  <defs>
    <linearGradient id="blockGradient" x1="0%" y1="0%" x2="100%" y2="100%">
      <stop offset="0%" style="stop-color:#4FC3F7;stop-opacity:1" />
      <stop offset="100%" style="stop-color:#0277BD;stop-opacity:1" />
    </linearGradient>
  </defs>
</svg>